<svg width="54" height="25" viewBox="0 0 54 25" fill="none" xmlns="http://www.w3.org/2000/svg">
<path d="M21.4702 12.3636C21.4702 14.8182 21.027 16.9394 20.1406 18.7273C19.2543 20.5152 18.0384 21.8939 16.4929 22.8636C14.9474 23.8333 13.1823 24.3182 11.1974 24.3182C9.2126 24.3182 7.44744 23.8333 5.90199 22.8636C4.35653 21.8939 3.14063 20.5152 2.25426 18.7273C1.3679 16.9394 0.924716 14.8182 0.924716 12.3636C0.924716 9.90909 1.3679 7.78788 2.25426 6C3.14063 4.21212 4.35653 2.83333 5.90199 1.86364C7.44744 0.893939 9.2126 0.40909 11.1974 0.40909C13.1823 0.40909 14.9474 0.893939 16.4929 1.86364C18.0384 2.83333 19.2543 4.21212 20.1406 6C21.027 7.78788 21.4702 9.90909 21.4702 12.3636ZM18.7429 12.3636C18.7429 10.3485 18.4058 8.64773 17.7315 7.26136C17.0649 5.875 16.1596 4.82576 15.0156 4.11364C13.8793 3.40151 12.6065 3.04545 11.1974 3.04545C9.78835 3.04545 8.51184 3.40151 7.3679 4.11364C6.23153 4.82576 5.32623 5.875 4.65199 7.26136C3.98532 8.64773 3.65199 10.3485 3.65199 12.3636C3.65199 14.3788 3.98532 16.0795 4.65199 17.4659C5.32623 18.8523 6.23153 19.9015 7.3679 20.6136C8.51184 21.3258 9.78835 21.6818 11.1974 21.6818C12.6065 21.6818 13.8793 21.3258 15.0156 20.6136C16.1596 19.9015 17.0649 18.8523 17.7315 17.4659C18.4058 16.0795 18.7429 14.3788 18.7429 12.3636ZM26.2088 24V0.727272H29.027V11.0909H41.4361V0.727272H44.2543V24H41.4361V13.5909H29.027V24H26.2088ZM53.0781 0.727272L52.8509 17.4545H50.2145L49.9872 0.727272H53.0781ZM51.5327 24.1818C50.9721 24.1818 50.491 23.9811 50.0895 23.5795C49.688 23.178 49.4872 22.697 49.4872 22.1364C49.4872 21.5758 49.688 21.0947 50.0895 20.6932C50.491 20.2917 50.9721 20.0909 51.5327 20.0909C52.0933 20.0909 52.5743 20.2917 52.9759 20.6932C53.3774 21.0947 53.5781 21.5758 53.5781 22.1364C53.5781 22.5076 53.4834 22.8485 53.294 23.1591C53.1122 23.4697 52.866 23.7197 52.5554 23.9091C52.2524 24.0909 51.9115 24.1818 51.5327 24.1818Z" fill="#3182CE"/>
</svg>
